0
SECTION
2
HEADER
9
$INSUNITS
70
4
9
$ACADVER
1
AC1014
9
$HANDSEED
5
FFFF
0
ENDSEC
0
SECTION
2
TABLES
0
TABLE
2
VPORT
5
8
100
AcDbSymbolTable
0
ENDTAB
0
TABLE
2
LTYPE
5
5
100
AcDbSymbolTable
0
LTYPE
5
14
100
AcDbSymbolTableRecord
100
AcDbLinetypeTableRecord
2
BYBLOCK
70
0
0
LTYPE
5
15
100
AcDbSymbolTableRecord
100
AcDbLinetypeTableRecord
2
BYLAYER
70
0
0
ENDTAB
0
TABLE
2
LAYER
5
2
100
AcDbSymbolTable
70
2
0
LAYER
5
50
100
AcDbSymbolTableRecord
100
AcDbLayerTableRecord
2
0
70
0
6
CONTINUOUS
0
ENDTAB
0
TABLE
2
STYLE
5
3
100
AcDbSymbolTable
70
1
0
STYLE
5
11
100
AcDbSymbolTableRecord
100
AcDbTextStyleTableRecord
2
STANDARD
70
0
0
ENDTAB
0
TABLE
2
VIEW
5
6
100
AcDbSymbolTable
70
0
0
ENDTAB
0
TABLE
2
UCS
5
7
100
AcDbSymbolTable
70
0
0
ENDTAB
0
TABLE
2
APPID
5
9
100
AcDbSymbolTable
70
2
0
APPID
5
12
100
AcDbSymbolTableRecord
100
AcDbRegAppTableRecord
2
ACAD
70
0
0
ENDTAB
0
TABLE
2
DIMSTYLE
5
A
100
AcDbSymbolTable
70
1
0
ENDTAB
0
TABLE
2
BLOCK_RECORD
5
1
100
AcDbSymbolTable
70
1
0
BLOCK_RECORD
5
1F
100
AcDbSymbolTableRecord
100
AcDbBlockTableRecord
2
*MODEL_SPACE
0
BLOCK_RECORD
5
1B
100
AcDbSymbolTableRecord
100
AcDbBlockTableRecord
2
*PAPER_SPACE
0
ENDTAB
0
ENDSEC
0
SECTION
2
BLOCKS
0
BLOCK
5
20
100
AcDbEntity
100
AcDbBlockBegin
2
*MODEL_SPACE
0
ENDBLK
5
21
100
AcDbEntity
100
AcDbBlockEnd
0
BLOCK
5
1C
100
AcDbEntity
100
AcDbBlockBegin
2
*PAPER_SPACE
0
ENDBLK
5
1D
100
AcDbEntity
100
AcDbBlockEnd
0
ENDSEC
0
SECTION
2
ENTITIES
0
LWPOLYLINE
5
100
100
AcDbEntity
8
0
100
AcDbPolyline
90
4
70
1
43
0.0
10
124.62724927332403
20
-0.30913948940868075
10
88.627249273323969
20
-0.30913948961556414
42
0.99999999999999989
10
88.627249273359595
20
-6.5091394896155652
10
124.62724927335955
20
-6.5091394894086729
42
0.99999999999999989
0
LWPOLYLINE
5
101
100
AcDbEntity
8
0
100
AcDbPolyline
90
4
70
1
43
0.0
10
29.293915939806894
20
-0.30913948961550197
10
-6.7060840601931559
20
-0.30913948940856528
42
0.99999999999999989
10
-6.7060840602286902
20
-6.5091394894085592
10
29.293915939771313
20
-6.5091394896155119
42
0.99999999999999989
0
LWPOLYLINE
5
102
100
AcDbEntity
8
0
100
AcDbPolyline
90
4
70
1
43
0.0
10
88.627249273324011
20
74.82419384435039
10
124.62724927332405
20
74.82419384414348
42
0.99999999999999989
10
124.62724927335961
20
81.024193844143483
10
88.627249273359581
20
81.024193844350378
42
0.99999999999999989
0
CIRCLE
5
103
100
AcDbEntity
8
0
100
AcDbCircle
10
130.46058260662551
20
37.25752717762073
30
0
40
3.100000000000005
210
0
220
0
230
1
0
CIRCLE
5
104
100
AcDbEntity
8
0
100
AcDbCircle
10
82.79391593984505
20
83.757527177825239
30
0
40
3.0999999999999868
210
0
220
0
230
1
0
CIRCLE
5
105
100
AcDbEntity
8
0
100
AcDbCircle
10
35.12724927308016
20
83.75752717777452
30
0
40
3.1000000000000005
210
0
220
0
230
1
0
CIRCLE
5
106
100
AcDbEntity
8
0
100
AcDbCircle
10
-12.539417393436187
20
-9.2424728226325463
30
0
40
3.1000000000000005
210
0
220
0
230
1
0
CIRCLE
5
107
100
AcDbEntity
8
0
100
AcDbCircle
10
82.793915939778998
20
-9.2424728230175095
30
0
40
3.100000000000005
210
0
220
0
230
1
0
CIRCLE
5
108
100
AcDbEntity
8
0
100
AcDbCircle
10
58.960582606512091
20
37.25752717736745
30
0
40
2.55905
210
0
220
-0
230
1
0
CIRCLE
5
109
100
AcDbEntity
8
0
100
AcDbCircle
10
130.4605826065085
20
-9.2424728229931432
30
0
40
3.0999999999999868
210
0
220
0
230
1
0
CIRCLE
5
110
100
AcDbEntity
8
0
100
AcDbCircle
10
35.127249273014073
20
-9.2424728228990354
30
0
40
3.1000000000000005
210
0
220
0
230
1
0
CIRCLE
5
111
100
AcDbEntity
8
0
100
AcDbCircle
10
-12.539417393612736
20
37.25752717747163
30
0
40
3.1000000000000005
210
0
220
0
230
1
0
CIRCLE
5
112
100
AcDbEntity
8
0
100
AcDbCircle
10
-12.539417393649385
20
83.757527177580954
30
0
40
3.0999999999999979
210
0
220
0
230
1
0
CIRCLE
5
113
100
AcDbEntity
8
0
100
AcDbCircle
10
130.46058260654061
20
83.757527177711282
30
0
40
3.100000000000005
210
0
220
0
230
1
0
LWPOLYLINE
5
114
100
AcDbEntity
8
0
100
AcDbPolyline
90
4
70
1
43
0.0
10
-6.7060840601931293
20
74.824193844143451
10
29.293915939806926
20
74.824193844350361
42
0.99999999999999989
10
29.293915939771299
20
81.024193844350378
10
-6.7060840602286564
20
81.024193844143454
42
0.99999999999999989
0
ELLIPSE
5
115
100
AcDbEntity
8
0
100
AcDbEllipse
10
77.466026719397817
20
-9.0998321355132674
30
0
11
-9.7769015106052848e-14
21
-4.2426406871192839
31
0.0
40
0.70710678118654813
41
6.0213859193804531
42
6.283185307179604
0
LINE
5
116
100
AcDbEntity
8
0
100
AcDbLine
10
76.689569584090208
20
-13.197908346866583
30
0
11
74.342082249110831
21
-12.308357641958164
31
0
0
ELLIPSE
5
117
100
AcDbEntity
8
0
100
AcDbEllipse
10
73.565625113803264
20
-16.406433853311494
30
0
11
6.9388939039072284e-17
21
4.2426406871193016
31
0.0
40
0.70710678118654491
41
6.0213859193804344
42
6.2831853071795862
0
LINE
5
118
100
AcDbEntity
8
0
100
AcDbLine
10
73.565625113803264
20
-12.163793166192194
30
0
11
44.355540099327662
21
-12.163793166192196
31
0
0
ELLIPSE
5
119
100
AcDbEntity
8
0
100
AcDbEllipse
10
44.355540099327662
20
-16.406433853311498
30
0
11
-6.9388939039072284e-17
21
4.2426406871193025
31
0.0
40
0.70710678118654491
41
0
42
0.26179938779915041
0
LINE
5
120
100
AcDbEntity
8
0
100
AcDbLine
10
43.579082964020095
20
-12.308357641958166
30
0
11
41.231595629040726
21
-13.197908346866583
31
0
0
ELLIPSE
5
121
100
AcDbEntity
8
0
100
AcDbEllipse
10
40.455138493733109
20
-9.0998321355132639
30
0
11
9.783840404509192e-14
21
-4.2426406871192839
31
0.0
40
0.70710678118654813
41
6.2831853071795667
42
6.5449846949787212
0
LINE
5
122
100
AcDbEntity
8
0
100
AcDbLine
10
40.455138493733152
20
-13.342472822632548
30
0
11
-12.539417393436185
21
-13.34247282263255
31
0
0
ARC
5
123
100
AcDbEntity
8
0
100
AcDbCircle
10
-12.539417393436187
20
-9.2424728226325463
30
0
40
4.1000000000000032
210
0
220
0
230
1
100
AcDbArc
50
180
51
270
0
LINE
5
124
100
AcDbEntity
8
0
100
AcDbLine
10
-16.63941739343619
20
-9.2424728226325392
30
0
11
-16.639417393435867
21
83.757527177580954
31
0
0
ARC
5
125
100
AcDbEntity
8
0
100
AcDbCircle
10
-12.539417393649385
20
83.757527177580954
30
0
40
4.0999999997864833
210
0
220
-0
230
1
100
AcDbArc
50
89.999999999999972
51
180
0
LINE
5
126
100
AcDbEntity
8
0
100
AcDbLine
10
-12.539417393649384
20
87.85752717736743
30
0
11
130.46058260656696
21
87.857527177367388
31
0
0
ARC
5
127
100
AcDbEntity
8
0
100
AcDbCircle
10
130.46058260654061
20
83.757527177711282
30
0
40
4.100000000026327
210
-0
220
0
230
1
100
AcDbArc
50
0
51
89.999999999631811
0
LINE
5
128
100
AcDbEntity
8
0
100
AcDbLine
10
134.56058260656695
20
83.757527177367393
30
0
11
134.56058260656695
21
-9.2424728226325392
31
0
0
ARC
5
129
100
AcDbEntity
8
0
100
AcDbCircle
10
130.4605826065085
20
-9.2424728229931432
30
0
40
4.0999999996394054
210
-0
220
0
230
1
100
AcDbArc
50
-89.999999999182975
51
0
0
LINE
5
130
100
AcDbEntity
8
0
100
AcDbLine
10
130.46058260656696
20
-13.34247282263255
30
0
11
77.466026719397775
21
-13.34247282263255
31
0
0
CIRCLE
5
131
100
AcDbEntity
8
0
100
AcDbCircle
10
82.793915939778998
20
-9.2424728230175095
30
0
40
1.2645
210
0
220
0
230
1
0
CIRCLE
5
132
100
AcDbEntity
8
0
100
AcDbCircle
10
35.127249273014073
20
-9.2424728228990354
30
0
40
1.2645
210
0
220
0
230
1
0
CIRCLE
5
133
100
AcDbEntity
8
0
100
AcDbCircle
10
-12.539417393715484
20
-9.2424728226376942
30
0
40
1.2645
210
0
220
0
230
1
0
CIRCLE
5
134
100
AcDbEntity
8
0
100
AcDbCircle
10
-12.539417393612737
20
37.25752717747163
30
0
40
1.2645
210
0
220
0
230
1
0
CIRCLE
5
135
100
AcDbEntity
8
0
100
AcDbCircle
10
-12.539417393649385
20
83.757527177580954
30
0
40
1.2645
210
0
220
0
230
1
0
CIRCLE
5
136
100
AcDbEntity
8
0
100
AcDbCircle
10
35.12724927308016
20
83.75752717777452
30
0
40
1.2645
210
0
220
0
230
1
0
CIRCLE
5
137
100
AcDbEntity
8
0
100
AcDbCircle
10
82.79391593984505
20
83.757527177825239
30
0
40
1.2645
210
0
220
0
230
1
0
CIRCLE
5
138
100
AcDbEntity
8
0
100
AcDbCircle
10
130.46058260656696
20
83.757527177367393
30
0
40
1.2645
210
0
220
0
230
1
0
CIRCLE
5
139
100
AcDbEntity
8
0
100
AcDbCircle
10
130.46058260663693
20
37.257527177623764
30
0
40
1.2645
210
0
220
0
230
1
0
CIRCLE
5
140
100
AcDbEntity
8
0
100
AcDbCircle
10
130.4605826065085
20
-9.2424728229931432
30
0
40
1.2645
210
0
220
0
230
1
0
LWPOLYLINE
5
141
100
AcDbEntity
8
0
100
AcDbPolyline
90
16
70
1
43
0.0
10
130.46058260656696
20
-14.342472822632548
42
0.41421356237309548
10
135.56058260656695
20
-9.2424728226325392
10
135.56058260656695
20
83.757527177367393
42
0.41421356237309304
10
130.46058260656696
20
88.857527177367373
10
-12.539417393649384
20
88.85752717736743
42
0.41421356237309681
10
-17.63941739343586
20
83.757527177580954
10
-17.63941739343619
20
-9.2424728226325392
42
0.41421356237309515
10
-12.539417393436194
20
-14.342472822632551
10
40.455138493733187
20
-14.342472822632548
10
41.231595629040754
20
-14.342472822632548
10
43.579082964020095
20
-14.342472822632551
10
44.355540099327662
20
-14.342472822632548
10
73.565625113803264
20
-14.342472822632548
10
74.342082249110831
20
-14.342472822632548
10
76.689569584090179
20
-14.342472822632548
10
77.466026719397746
20
-14.342472822632548
0
ENDSEC
0
SECTION
2
OBJECTS
0
DICTIONARY
5
C
100
AcDbDictionary
3
ACAD_GROUP
350
D
3
ACAD_MLINESTYLE
350
17
0
DICTIONARY
5
D
100
AcDbDictionary
0
DICTIONARY
5
1A
330
C
100
AcDbDictionary
0
DICTIONARY
5
17
100
AcDbDictionary
0
ENDSEC
0
EOF
