0
SECTION
2
HEADER
9
$INSUNITS
70
4
9
$ACADVER
1
AC1014
9
$HANDSEED
5
FFFF
0
ENDSEC
0
SECTION
2
TABLES
0
TABLE
2
VPORT
5
8
100
AcDbSymbolTable
0
ENDTAB
0
TABLE
2
LTYPE
5
5
100
AcDbSymbolTable
0
LTYPE
5
14
100
AcDbSymbolTableRecord
100
AcDbLinetypeTableRecord
2
BYBLOCK
70
0
0
LTYPE
5
15
100
AcDbSymbolTableRecord
100
AcDbLinetypeTableRecord
2
BYLAYER
70
0
0
ENDTAB
0
TABLE
2
LAYER
5
2
100
AcDbSymbolTable
70
2
0
LAYER
5
50
100
AcDbSymbolTableRecord
100
AcDbLayerTableRecord
2
0
70
0
6
CONTINUOUS
0
ENDTAB
0
TABLE
2
STYLE
5
3
100
AcDbSymbolTable
70
1
0
STYLE
5
11
100
AcDbSymbolTableRecord
100
AcDbTextStyleTableRecord
2
STANDARD
70
0
0
ENDTAB
0
TABLE
2
VIEW
5
6
100
AcDbSymbolTable
70
0
0
ENDTAB
0
TABLE
2
UCS
5
7
100
AcDbSymbolTable
70
0
0
ENDTAB
0
TABLE
2
APPID
5
9
100
AcDbSymbolTable
70
2
0
APPID
5
12
100
AcDbSymbolTableRecord
100
AcDbRegAppTableRecord
2
ACAD
70
0
0
ENDTAB
0
TABLE
2
DIMSTYLE
5
A
100
AcDbSymbolTable
70
1
0
ENDTAB
0
TABLE
2
BLOCK_RECORD
5
1
100
AcDbSymbolTable
70
1
0
BLOCK_RECORD
5
1F
100
AcDbSymbolTableRecord
100
AcDbBlockTableRecord
2
*MODEL_SPACE
0
BLOCK_RECORD
5
1B
100
AcDbSymbolTableRecord
100
AcDbBlockTableRecord
2
*PAPER_SPACE
0
ENDTAB
0
ENDSEC
0
SECTION
2
BLOCKS
0
BLOCK
5
20
100
AcDbEntity
100
AcDbBlockBegin
2
*MODEL_SPACE
0
ENDBLK
5
21
100
AcDbEntity
100
AcDbBlockEnd
0
BLOCK
5
1C
100
AcDbEntity
100
AcDbBlockBegin
2
*PAPER_SPACE
0
ENDBLK
5
1D
100
AcDbEntity
100
AcDbBlockEnd
0
ENDSEC
0
SECTION
2
ENTITIES
0
LWPOLYLINE
5
100
100
AcDbEntity
8
0
100
AcDbPolyline
90
5
70
1
43
0.0
10
-8.0789188859104932
20
-5.8933071899298461
42
0.21155776498432827
10
-1.0642942958294899
20
-9.9432025852772838
42
0.66449329684367564
10
-0.84150787588611664
20
-9.5396587332047602
10
-3.5373304102262262
20
-6.126835993670281
10
-7.8408328684463413
20
-5.4985965646044388
42
0.66449329684367042
0
LWPOLYLINE
5
101
100
AcDbEntity
8
0
100
AcDbPolyline
90
8
70
1
43
0.0
10
-1.1542904844252018
20
-2.434160540294128
42
0.31280854006409797
10
-1.2505269911295485
20
-2.1659762848726132
42
0.31280854006409775
10
-1.5308996225717686
20
-2.2167251530059344
10
-3.6862366779187998
20
-4.3720622083529523
42
0.38039149979974751
10
-3.7056390451697969
20
-4.7038026910901785
10
-3.1337437328222717
20
-5.4278033631487226
10
-2.2207931022888037
20
-5.5610788959176425
42
0.38039149979974662
10
-1.943198600400152
20
-5.3784057116161126
0
LWPOLYLINE
5
102
100
AcDbEntity
8
0
100
AcDbPolyline
90
12
70
1
43
0.0
10
2.0675711189247408
20
-1.4054001807984429
42
0.036714763839113318
10
2.2508978185170636
20
-1.087869022720624
42
-0.36004834121741131
10
2.540692361644401
20
-0.95517446842041909
10
6.0797071445148934
20
-1.9034506214923761
42
0.38039149979974579
10
6.3767040136545416
20
-1.7543833230566832
10
6.6710741430484966
20
-1.0144549481417509
10
8.0193326577301391
20
-4.4034357995191691
42
-0.48443606226498676
10
7.8231535951825073
20
-4.7432279032329037
10
4.2140808276098252
20
-5.2700922043386322
10
4.7076925325701131
20
-4.6451960067106892
42
0.38039149979975007
10
4.6882901653191169
20
-4.313455523973464
10
2.0975515355205774
20
-1.7227168941749238
42
-0.36004834121740942
0
LWPOLYLINE
5
103
100
AcDbEntity
8
0
100
AcDbPolyline
90
5
70
1
43
0.0
10
0.84150787588611664
20
-9.5396587332047602
42
0.66449329684367475
10
1.0642942958294868
20
-9.9432025852772803
42
0.21155776498432796
10
8.0789188859104861
20
-5.8933071899298515
42
0.66449329684367253
10
7.8408328684463395
20
-5.4985965646044432
10
3.5373304102262235
20
-6.1268359936702836
0
LWPOLYLINE
5
104
100
AcDbEntity
8
0
100
AcDbPolyline
90
12
70
1
43
0.0
10
2.4569933154386692
20
-6.2845471524803775
10
0.19617906254763318
20
-9.1466637027520648
42
-0.48443606226498692
10
-0.19617906254763384
20
-9.1466637027520665
10
-2.4569933154386714
20
-6.2845471524803749
10
-1.6690114810844314
20
-6.3995793297673629
42
0.38039149979974857
10
-1.3914169791957784
20
-6.2169061454658339
10
-0.44314082612382344
20
-2.6778913625953393
42
-0.36004834121740942
10
-0.18332669959232412
20
-2.4932692035190644
42
0.036714763839113894
10
0.18332669959232062
20
-2.493269203519064
42
-0.36004834121741203
10
0.443140826123821
20
-2.6778913625953411
10
1.3914169791957725
20
-6.2169061454658348
42
0.38039149979975029
10
1.6690114810844237
20
-6.3995793297673655
0
LWPOLYLINE
5
105
100
AcDbEntity
8
0
100
AcDbPolyline
90
5
70
1
43
0.0
10
8.6823407443324552
20
-4.0410621686003241
42
0.66449329684367475
10
9.1432131817399735
20
-4.0498953953474386
42
0.21155776498432766
10
9.1432131817399789
20
4.049895395347427
42
0.66449329684367242
10
8.6823407443324605
20
4.0410621686003152
10
7.0746608204524506
20
-4.9960036108132044e-15
0
LWPOLYLINE
5
106
100
AcDbEntity
8
0
100
AcDbPolyline
90
5
70
1
43
0.0
10
-9.1432131817399735
20
4.0498953953474395
42
0.21155776498432807
10
-9.1432131817399771
20
-4.0498953953474297
42
0.66449329684367764
10
-8.6823407443324605
20
-4.0410621686003196
10
-7.0746608204524506
20
1.6653345369377348e-15
10
-8.6823407443324569
20
4.0410621686003196
42
0.66449329684366731
0
LWPOLYLINE
5
107
100
AcDbEntity
8
0
100
AcDbPolyline
90
5
70
1
43
0.0
10
-1.0642942958294852
20
9.9432025852772838
42
0.21155776498432788
10
-8.0789188859104879
20
5.893307189929847
42
0.66449329684367142
10
-7.8408328684463413
20
5.4985965646044397
10
-3.5373304102262262
20
6.126835993670281
10
-0.84150787588611775
20
9.5396587332047602
42
0.66449329684366987
0
CIRCLE
5
108
100
AcDbEntity
8
0
100
AcDbCircle
10
-6.6613381477509392e-15
20
-1.1102230246251565e-14
30
0
40
11
210
0
220
-0
230
1
0
LWPOLYLINE
5
109
100
AcDbEntity
8
0
100
AcDbPolyline
90
12
70
1
43
0.0
10
-2.0975515355205796
20
-1.7227168941749229
42
0.36004834121741081
10
-2.067571118924743
20
-1.4054001807984418
42
-0.036714763839114067
10
-2.2508978185170649
20
-1.0878690227206214
42
0.36004834121740981
10
-2.540692361644401
20
-0.9551744684204162
10
-6.0797071445148951
20
-1.9034506214923708
42
-0.38039149979975007
10
-6.3767040136545443
20
-1.7543833230566741
10
-6.6710741430484974
20
-1.0144549481417426
10
-8.0193326577301445
20
-4.4034357995191638
42
0.48443606226498637
10
-7.8231535951825109
20
-4.7432279032328974
10
-4.2140808276098269
20
-5.2700922043386278
10
-4.7076925325701167
20
-4.6451960067106866
42
-0.38039149979974535
10
-4.6882901653191205
20
-4.3134555239734613
0
LWPOLYLINE
5
110
100
AcDbEntity
8
0
100
AcDbPolyline
90
5
70
1
43
0.0
10
8.0789188859104932
20
5.8933071899298444
42
0.21155776498432771
10
1.0642942958294921
20
9.9432025852772821
42
0.66449329684368097
10
0.84150787588611553
20
9.5396587332047602
10
3.5373304102262275
20
6.1268359936702783
10
7.8408328684463431
20
5.4985965646044335
42
0.66449329684367886
0
LWPOLYLINE
5
111
100
AcDbEntity
8
0
100
AcDbPolyline
90
12
70
1
43
0.0
10
-2.5406923616444015
20
0.95517446842041775
42
0.36004834121741081
10
-2.2508978185170663
20
1.087869022720624
42
-0.036714763839113845
10
-2.0675711189247412
20
1.4054001807984422
42
0.36004834121740997
10
-2.0975515355205783
20
1.7227168941749231
10
-4.6882901653191187
20
4.3134555239734631
42
-0.38039149979974929
10
-4.707692532570114
20
4.6451960067106892
10
-4.2140808276098269
20
5.2700922043386287
10
-7.8231535951825091
20
4.743227903232901
42
0.48443606226498676
10
-8.0193326577301427
20
4.4034357995191655
10
-6.6710741430484966
20
1.014454948141748
10
-6.3767040136545425
20
1.7543833230566797
42
-0.38039149979974712
10
-6.0797071445148942
20
1.9034506214923728
0
LWPOLYLINE
5
112
100
AcDbEntity
8
0
100
AcDbPolyline
90
8
70
1
43
0.0
10
1.530899622571769
20
-2.2167251530059344
42
0.31280854006409797
10
1.2505269911295491
20
-2.1659762848726132
42
0.31280854006409853
10
1.1542904844252004
20
-2.434160540294128
10
1.9431986004001478
20
-5.3784057116161144
42
0.38039149979974729
10
2.2207931022888001
20
-5.5610788959176451
10
3.1337437328222695
20
-5.4278033631487252
10
3.7056390451697956
20
-4.7038026910901785
42
0.38039149979974701
10
3.6862366779187989
20
-4.3720622083529532
0
LWPOLYLINE
5
113
100
AcDbEntity
8
0
100
AcDbPolyline
90
12
70
1
43
0.0
10
2.2508978185170654
20
1.0878690227206198
42
0.036714763839113894
10
2.0675711189247421
20
1.4054001807984413
42
-0.36004834121741197
10
2.0975515355205792
20
1.7227168941749231
10
4.6882901653191187
20
4.3134555239734631
42
0.38039149979974651
10
4.7076925325701167
20
4.6451960067106874
10
4.2140808276098287
20
5.2700922043386269
10
7.8231535951825117
20
4.743227903232893
42
-0.48443606226498781
10
8.0193326577301463
20
4.4034357995191602
10
6.6710741430484983
20
1.0144549481417391
10
6.3767040136545443
20
1.7543833230566717
42
0.38039149979974907
10
6.0797071445148951
20
1.9034506214923674
10
2.5406923616444015
20
0.95517446842041498
42
-0.36004834121740925
0
LWPOLYLINE
5
114
100
AcDbEntity
8
0
100
AcDbPolyline
90
12
70
1
43
0.0
10
0.18332669959232584
20
2.4932692035190631
42
0.0367147638391137
10
-0.18332669959232134
20
2.493269203519064
42
-0.3600483412174123
10
-0.44314082612382205
20
2.6778913625953411
10
-1.3914169791957753
20
6.2169061454658348
42
0.3803914997997413
10
-1.6690114810844259
20
6.3995793297673629
10
-2.4569933154386705
20
6.2845471524803749
10
-0.19617906254763437
20
9.1466637027520648
42
-0.48443606226498698
10
0.19617906254763282
20
9.1466637027520665
10
2.4569933154386714
20
6.284547152480374
10
1.6690114810844348
20
6.399579329767362
42
0.38039149979974818
10
1.391416979195782
20
6.2169061454658312
10
0.44314082612382566
20
2.6778913625953393
42
-0.36004834121740975
0
LWPOLYLINE
5
115
100
AcDbEntity
8
0
100
AcDbPolyline
90
8
70
1
43
0.0
10
-1.5308996225717695
20
2.2167251530059344
42
0.31280854006409775
10
-1.2505269911295498
20
2.1659762848726127
42
0.31280854006409881
10
-1.1542904844252018
20
2.434160540294128
10
-1.9431986004001502
20
5.3784057116161135
42
0.38039149979974729
10
-2.2207931022888023
20
5.5610788959176443
10
-3.1337437328222704
20
5.4278033631487235
10
-3.7056390451697965
20
4.7038026910901776
42
0.38039149979974701
10
-3.6862366779187994
20
4.3720622083529523
0
LWPOLYLINE
5
116
100
AcDbEntity
8
0
100
AcDbPolyline
90
8
70
1
43
0.0
10
-2.6851901069969704
20
-0.21743538728819395
42
0.31280854006409498
10
-2.5010539822590969
20
-3.2959746043559335e-15
42
0.31280854006410153
10
-2.6851901069969704
20
0.217435387288194
10
-5.629435278318951
20
1.0063435032631609
42
0.38039149979974685
10
-5.9264321474585993
20
0.8572762048274668
10
-6.2674874656445434
20
2.9143354396410359e-15
10
-5.9264321474585993
20
-0.85727620482746458
42
0.38039149979974723
10
-5.629435278318951
20
-1.0063435032631589
0
LWPOLYLINE
5
117
100
AcDbEntity
8
0
100
AcDbPolyline
90
8
70
1
43
0.0
10
2.6851901069969704
20
0.21743538728819284
42
0.31280854006409797
10
2.5010539822590978
20
-6.2450045135165055e-16
42
0.31280854006409858
10
2.6851901069969699
20
-0.21743538728819539
10
5.6294352783189492
20
-1.0063435032631642
42
0.38039149979974768
10
5.9264321474585984
20
-0.85727620482747013
10
6.2674874656445434
20
-5.6898930012039273e-15
10
5.9264321474585993
20
0.85727620482746292
42
0.38039149979974712
10
5.629435278318951
20
1.0063435032631565
0
LWPOLYLINE
5
118
100
AcDbEntity
8
0
100
AcDbPolyline
90
8
70
1
43
0.0
10
1.1542904844252031
20
2.4341605402941275
42
0.31280854006409742
10
1.2505269911295493
20
2.1659762848726132
42
0.31280854006409653
10
1.5308996225717684
20
2.2167251530059344
10
3.6862366779187994
20
4.3720622083529532
42
0.38039149979974751
10
3.7056390451697965
20
4.7038026910901785
10
3.133743732822273
20
5.4278033631487208
10
2.2207931022888068
20
5.5610788959176416
42
0.38039149979974685
10
1.9431986004001551
20
5.3784057116161108
0
ENDSEC
0
SECTION
2
OBJECTS
0
DICTIONARY
5
C
100
AcDbDictionary
3
ACAD_GROUP
350
D
3
ACAD_MLINESTYLE
350
17
0
DICTIONARY
5
D
100
AcDbDictionary
0
DICTIONARY
5
1A
330
C
100
AcDbDictionary
0
DICTIONARY
5
17
100
AcDbDictionary
0
ENDSEC
0
EOF
