0
SECTION
2
HEADER
9
$INSUNITS
70
4
9
$ACADVER
1
AC1014
9
$HANDSEED
5
FFFF
0
ENDSEC
0
SECTION
2
TABLES
0
TABLE
2
VPORT
5
8
100
AcDbSymbolTable
0
ENDTAB
0
TABLE
2
LTYPE
5
5
100
AcDbSymbolTable
0
LTYPE
5
14
100
AcDbSymbolTableRecord
100
AcDbLinetypeTableRecord
2
BYBLOCK
70
0
0
LTYPE
5
15
100
AcDbSymbolTableRecord
100
AcDbLinetypeTableRecord
2
BYLAYER
70
0
0
ENDTAB
0
TABLE
2
LAYER
5
2
100
AcDbSymbolTable
70
2
0
LAYER
5
50
100
AcDbSymbolTableRecord
100
AcDbLayerTableRecord
2
0
70
0
6
CONTINUOUS
0
ENDTAB
0
TABLE
2
STYLE
5
3
100
AcDbSymbolTable
70
1
0
STYLE
5
11
100
AcDbSymbolTableRecord
100
AcDbTextStyleTableRecord
2
STANDARD
70
0
0
ENDTAB
0
TABLE
2
VIEW
5
6
100
AcDbSymbolTable
70
0
0
ENDTAB
0
TABLE
2
UCS
5
7
100
AcDbSymbolTable
70
0
0
ENDTAB
0
TABLE
2
APPID
5
9
100
AcDbSymbolTable
70
2
0
APPID
5
12
100
AcDbSymbolTableRecord
100
AcDbRegAppTableRecord
2
ACAD
70
0
0
ENDTAB
0
TABLE
2
DIMSTYLE
5
A
100
AcDbSymbolTable
70
1
0
ENDTAB
0
TABLE
2
BLOCK_RECORD
5
1
100
AcDbSymbolTable
70
1
0
BLOCK_RECORD
5
1F
100
AcDbSymbolTableRecord
100
AcDbBlockTableRecord
2
*MODEL_SPACE
0
BLOCK_RECORD
5
1B
100
AcDbSymbolTableRecord
100
AcDbBlockTableRecord
2
*PAPER_SPACE
0
ENDTAB
0
ENDSEC
0
SECTION
2
BLOCKS
0
BLOCK
5
20
100
AcDbEntity
100
AcDbBlockBegin
2
*MODEL_SPACE
0
ENDBLK
5
21
100
AcDbEntity
100
AcDbBlockEnd
0
BLOCK
5
1C
100
AcDbEntity
100
AcDbBlockBegin
2
*PAPER_SPACE
0
ENDBLK
5
1D
100
AcDbEntity
100
AcDbBlockEnd
0
ENDSEC
0
SECTION
2
ENTITIES
0
CIRCLE
5
100
100
AcDbEntity
8
0
100
AcDbCircle
10
58.960582606512091
20
37.25752717736745
30
0
40
2.55905
210
0
220
0
230
1
0
LWPOLYLINE
5
101
100
AcDbEntity
8
0
100
AcDbPolyline
90
60
70
1
43
0.0
10
-14.139417390045974
20
-5.1424728262539219
10
-12.53941739484044
20
-5.1424728226376937
42
-0.41421356245387442
10
-8.4394173937154822
20
-9.2424728226435118
10
-8.4394173937741463
20
-10.842472822577555
42
0.41421356238383433
10
-6.9394173937741428
20
-12.342472822632548
10
29.527249273004877
20
-12.342472822632551
42
0.4142135623714106
10
31.027249273004873
20
-10.84247282264117
10
31.027249273014075
20
-9.2424728228765503
42
-0.99999999999999989
10
39.227249273014067
20
-9.2424728229215205
10
39.227249272982917
20
-10.842472822603355
42
0.41421356237879647
10
40.727249272982924
20
-12.342472822632553
10
77.193915939802139
20
-12.342472822632551
42
0.4142135623773362
10
78.693915939802139
20
-10.842472822610809
10
78.693915939779004
20
-9.2424728230196216
42
-0.99999999999999989
10
86.893915939779006
20
-9.2424728230153974
10
86.893915939780243
20
-10.842472822633702
42
0.41421356237286355
10
88.393915939780214
20
-12.342472822632555
10
124.86058260655926
20
-12.342472822632548
42
0.41421356238237605
10
126.36058260655928
20
-10.842472822585009
10
126.3605826065085
20
-9.242472822996195
42
-0.41421356237435863
10
130.46058260652313
20
-5.1424728229931427
10
132.06058260310564
20
-5.1424728266852071
42
0.41421356304895257
10
133.56058260656698
20
-3.642472826685204
10
133.56058260656695
20
31.657527177629593
42
0.41421356237444434
10
132.06058260656005
20
33.157527177629596
10
130.46058260664242
20
33.157527177622015
42
-0.99999999999999989
10
130.46058260663142
20
41.357527177625514
10
132.06058260656849
20
41.357527177627148
42
0.41421356237279505
10
133.56058260656695
20
42.857527177627155
10
133.56058260656692
20
78.157527177736497
42
0.41421356237372459
10
132.06058260656377
20
79.657527177736483
10
130.46058260658336
20
79.657527177733101
42
-0.41421356237309509
10
126.36058260657461
20
83.757527177724342
10
126.36058260662759
20
85.357527177317735
42
0.41421356238280349
10
124.8605826066276
20
86.857527177367416
10
88.393915939848569
20
86.857527177367402
42
0.41421356237246032
10
86.893915939848569
20
85.357527177370685
10
86.89391593984503
20
83.757527177817337
42
-0.99999999999999989
10
78.69391593984507
20
83.75752717783314
10
78.693915939870521
20
85.357527177343528
42
0.41421356237775847
10
77.193915939870521
20
86.857527177367402
10
40.727249273051299
20
86.857527177367416
42
0.4142135623783828
10
39.227249273051299
20
85.357527177340387
10
39.227249273080162
20
83.757527177791147
42
-0.99999999999999989
10
31.027249273080166
20
83.757527177757893
10
31.027249273073245
20
85.357527177373925
42
0.41421356237182383
10
29.527249273073242
20
86.857527177367416
10
-6.9394173937057602
20
86.857527177367416
42
0.41421356238342133
10
-8.4394173937057477
20
85.357527177314566
10
-8.4394173936493928
20
83.757527177598547
42
-0.41421356237435264
10
-12.539417393649385
20
79.65752717758096
10
-14.13941739343619
20
79.65752717758096
42
0.41421356237309587
10
-15.63941739343619
20
78.157527177580945
10
-15.63941739343619
20
42.857527177471617
42
0.41421356237341672
10
-14.139417393434519
20
41.35752717747161
10
-12.539417393603671
20
41.357527177473372
42
-0.99999999999999989
10
-12.539417393621799
20
33.157527177469881
10
-14.139417393432394
20
33.157527177473938
42
0.41421356237383772
10
-15.639417393436192
20
31.657527177473924
10
-15.639417393436188
20
-3.6424728262539308
42
0.41421356303507612
0
ENDSEC
0
SECTION
2
OBJECTS
0
DICTIONARY
5
C
100
AcDbDictionary
3
ACAD_GROUP
350
D
3
ACAD_MLINESTYLE
350
17
0
DICTIONARY
5
D
100
AcDbDictionary
0
DICTIONARY
5
1A
330
C
100
AcDbDictionary
0
DICTIONARY
5
17
100
AcDbDictionary
0
ENDSEC
0
EOF
