0
SECTION
2
HEADER
9
$INSUNITS
70
4
9
$ACADVER
1
AC1014
9
$HANDSEED
5
FFFF
0
ENDSEC
0
SECTION
2
TABLES
0
TABLE
2
VPORT
5
8
100
AcDbSymbolTable
0
ENDTAB
0
TABLE
2
LTYPE
5
5
100
AcDbSymbolTable
0
LTYPE
5
14
100
AcDbSymbolTableRecord
100
AcDbLinetypeTableRecord
2
BYBLOCK
70
0
0
LTYPE
5
15
100
AcDbSymbolTableRecord
100
AcDbLinetypeTableRecord
2
BYLAYER
70
0
0
ENDTAB
0
TABLE
2
LAYER
5
2
100
AcDbSymbolTable
70
2
0
LAYER
5
50
100
AcDbSymbolTableRecord
100
AcDbLayerTableRecord
2
0
70
0
6
CONTINUOUS
0
ENDTAB
0
TABLE
2
STYLE
5
3
100
AcDbSymbolTable
70
1
0
STYLE
5
11
100
AcDbSymbolTableRecord
100
AcDbTextStyleTableRecord
2
STANDARD
70
0
0
ENDTAB
0
TABLE
2
VIEW
5
6
100
AcDbSymbolTable
70
0
0
ENDTAB
0
TABLE
2
UCS
5
7
100
AcDbSymbolTable
70
0
0
ENDTAB
0
TABLE
2
APPID
5
9
100
AcDbSymbolTable
70
2
0
APPID
5
12
100
AcDbSymbolTableRecord
100
AcDbRegAppTableRecord
2
ACAD
70
0
0
ENDTAB
0
TABLE
2
DIMSTYLE
5
A
100
AcDbSymbolTable
70
1
0
ENDTAB
0
TABLE
2
BLOCK_RECORD
5
1
100
AcDbSymbolTable
70
1
0
BLOCK_RECORD
5
1F
100
AcDbSymbolTableRecord
100
AcDbBlockTableRecord
2
*MODEL_SPACE
0
BLOCK_RECORD
5
1B
100
AcDbSymbolTableRecord
100
AcDbBlockTableRecord
2
*PAPER_SPACE
0
ENDTAB
0
ENDSEC
0
SECTION
2
BLOCKS
0
BLOCK
5
20
100
AcDbEntity
100
AcDbBlockBegin
2
*MODEL_SPACE
0
ENDBLK
5
21
100
AcDbEntity
100
AcDbBlockEnd
0
BLOCK
5
1C
100
AcDbEntity
100
AcDbBlockBegin
2
*PAPER_SPACE
0
ENDBLK
5
1D
100
AcDbEntity
100
AcDbBlockEnd
0
ENDSEC
0
SECTION
2
ENTITIES
0
CIRCLE
5
100
100
AcDbEntity
8
0
100
AcDbCircle
10
82.79391593984505
20
83.757527177825239
30
0
40
1.2645
210
0
220
0
230
1
0
LWPOLYLINE
5
101
100
AcDbEntity
8
0
100
AcDbPolyline
90
6
70
1
43
0.0
10
88.393915939848569
20
87.357527177367416
10
77.193915939870521
20
87.357527177367416
42
-0.41421356237775675
10
79.193915939870521
20
85.357527177335569
10
79.193915939845056
20
83.757527177832173
42
0.99999999999999989
10
86.393915939845016
20
83.757527177818289
10
86.393915939848554
20
85.357527177371793
42
-0.41421356237245249
0
CIRCLE
5
102
100
AcDbEntity
8
0
100
AcDbCircle
10
35.12724927308016
20
83.75752717777452
30
0
40
1.2645
210
0
220
0
230
1
0
LWPOLYLINE
5
103
100
AcDbEntity
8
0
100
AcDbPolyline
90
6
70
1
43
0.0
10
40.727249273051299
20
87.357527177367416
10
29.527249273073242
20
87.357527177367444
42
-0.4142135623718281
10
31.527249273073245
20
85.357527177376085
10
31.527249273080162
20
83.757527177759926
42
0.99999999999999989
10
38.727249273080162
20
83.757527177789115
10
38.727249273051321
20
85.357527177331349
42
-0.41421356237837853
0
CIRCLE
5
104
100
AcDbEntity
8
0
100
AcDbCircle
10
130.46058260656696
20
83.757527177367393
30
0
40
1.2645
210
0
220
0
230
1
0
LWPOLYLINE
5
105
100
AcDbEntity
8
0
100
AcDbPolyline
90
8
70
1
43
0.0
10
134.06058260656695
20
78.157527177736497
10
134.06058260656695
20
83.757527177367393
42
0.41421356237309509
10
130.46058260656696
20
87.357527177367388
10
124.8605826066276
20
87.357527177367388
42
-0.41421356238279311
10
126.8605826066276
20
85.357527177301179
10
126.86058260657461
20
83.757527177725407
42
0.4142135624034709
10
130.46058260658231
20
80.157527177733101
10
132.06058260656275
20
80.157527177736483
42
-0.41421356237371415
0
CIRCLE
5
106
100
AcDbEntity
8
0
100
AcDbCircle
10
130.46058260663693
20
37.257527177623764
30
0
40
1.2645
210
0
220
0
230
1
0
LWPOLYLINE
5
107
100
AcDbEntity
8
0
100
AcDbPolyline
90
6
70
1
43
0.0
10
130.4605826066321
20
40.857527177625521
42
0.99999999999999989
10
130.46058260665231
20
33.657527177622015
10
132.06058260655774
20
33.657527177629582
42
-0.41421356237444251
10
134.06058260656695
20
31.657527177629593
10
134.06058260656695
20
42.857527177627155
42
-0.41421356237279588
10
132.060582606569
20
40.857527177627155
0
CIRCLE
5
108
100
AcDbEntity
8
0
100
AcDbCircle
10
130.4605826065085
20
-9.2424728229931432
30
0
40
1.2645
210
0
220
0
230
1
0
LWPOLYLINE
5
109
100
AcDbEntity
8
0
100
AcDbPolyline
90
8
70
1
43
0.0
10
130.46058260652134
20
-5.6424728229931436
42
0.41421356237309881
10
126.86058260650852
20
-9.2424728229803481
10
126.86058260655926
20
-10.842472822569162
42
-0.41421356238237783
10
124.86058260655926
20
-12.84247282263255
10
130.46058260656696
20
-12.842472822632548
42
0.41421356239767682
10
134.06058260656695
20
-9.2424728226325445
10
134.06058260656695
20
-3.6424728266852036
42
-0.41421356304895812
10
132.06058260195189
20
-5.6424728266852044
0
CIRCLE
5
110
100
AcDbEntity
8
0
100
AcDbCircle
10
82.793915939778998
20
-9.2424728230175095
30
0
40
1.2645
210
0
220
0
230
1
0
LWPOLYLINE
5
111
100
AcDbEntity
8
0
100
AcDbPolyline
90
6
70
1
43
0.0
10
86.393915939780214
20
-10.842472822634088
10
86.393915939778992
20
-9.2424728230156532
42
0.99999999999999989
10
79.193915939779004
20
-9.2424728230193391
10
79.193915939802139
20
-10.842472822603565
42
-0.41421356237733958
10
77.193915939802139
20
-12.842472822632548
10
88.393915939780214
20
-12.842472822632542
42
-0.41421356237286966
0
CIRCLE
5
112
100
AcDbEntity
8
0
100
AcDbCircle
10
35.127249273014073
20
-9.2424728228990354
30
0
40
1.2645
210
0
220
0
230
1
0
LWPOLYLINE
5
113
100
AcDbEntity
8
0
100
AcDbPolyline
90
6
70
1
43
0.0
10
38.727249272982924
20
-10.842472822593622
10
38.727249273014067
20
-9.2424728229187778
42
0.99999999999999989
10
31.527249273014071
20
-9.2424728228792912
10
31.52724927300487
20
-10.842472822644043
42
-0.41421356237141194
10
29.527249273004873
20
-12.84247282263255
10
40.727249272982924
20
-12.842472822632548
42
-0.4142135623787957
0
CIRCLE
5
114
100
AcDbEntity
8
0
100
AcDbCircle
10
-12.539417393715484
20
-9.2424728226376942
30
0
40
1.2645
210
0
220
0
230
1
0
LWPOLYLINE
5
115
100
AcDbEntity
8
0
100
AcDbPolyline
90
8
70
1
43
0.0
10
-16.13941739343619
20
-3.6424728262539308
10
-16.13941739343619
20
-9.2424728226325463
42
0.41421356239623747
10
-12.539417393436185
20
-12.842472822632548
10
-6.9394173937741428
20
-12.84247282263255
42
-0.41421356238383333
10
-8.9394173937741428
20
-10.842472822559223
10
-8.9394173937154839
20
-9.2424728226428012
42
0.41421356237309409
10
-12.539417393710366
20
-5.6424728226376946
10
-14.139417388915898
20
-5.6424728262539308
42
-0.41421356303507628
0
CIRCLE
5
116
100
AcDbEntity
8
0
100
AcDbCircle
10
-12.539417393612737
20
37.25752717747163
30
0
40
1.2645
210
0
220
0
230
1
0
LWPOLYLINE
5
117
100
AcDbEntity
8
0
100
AcDbPolyline
90
6
70
1
43
0.0
10
-12.539417393620692
20
33.657527177469881
42
0.99999999999999989
10
-12.539417393615576
20
40.857527177473386
10
-14.139417393433964
20
40.857527177471617
42
-0.41421356237342083
10
-16.13941739343619
20
42.857527177471617
10
-16.139417393436194
20
31.657527177473924
42
-0.41421356237383672
10
-14.139417393431126
20
33.657527177473931
0
CIRCLE
5
118
100
AcDbEntity
8
0
100
AcDbCircle
10
-12.539417393649385
20
83.757527177580954
30
0
40
1.2645
210
0
220
0
230
1
0
LWPOLYLINE
5
119
100
AcDbEntity
8
0
100
AcDbPolyline
90
8
70
1
43
0.0
10
-12.539417393649385
20
80.15752717758096
42
0.41421356237309359
10
-8.939417393649391
20
83.757527177580926
10
-8.9394173937057531
20
85.357527177296944
42
-0.4142135623834175
10
-6.9394173937057602
20
87.35752717736743
10
-12.539417393649385
20
87.35752717736743
42
0.41421356237309509
10
-16.139417393435856
20
83.757527177580954
10
-16.139417393436194
20
78.15752717758096
42
-0.41421356237309509
10
-14.13941739343619
20
80.15752717758096
0
CIRCLE
5
120
100
AcDbEntity
8
0
100
AcDbCircle
10
58.960582606512091
20
37.25752717736745
30
0
40
3.1250000000000009
210
0
220
0
230
1
0
ENDSEC
0
SECTION
2
OBJECTS
0
DICTIONARY
5
C
100
AcDbDictionary
3
ACAD_GROUP
350
D
3
ACAD_MLINESTYLE
350
17
0
DICTIONARY
5
D
100
AcDbDictionary
0
DICTIONARY
5
1A
330
C
100
AcDbDictionary
0
DICTIONARY
5
17
100
AcDbDictionary
0
ENDSEC
0
EOF
